{
.appVersion = "3205";
.formatVersion = 3;
DisplayStrings = (
"/P.bubble"
);
date = "2023-07-14 05:47:38 +0000";
familyName = "Bubblekern Serif";
fontMaster = (
{
id = m01;
metricValues = (
{
over = 16;
pos = 800;
},
{
over = 16;
pos = 700;
},
{
over = 16;
pos = 500;
},
{
over = -16;
},
{
over = -16;
pos = -200;
},
{
}
);
name = Regular;
}
);
glyphs = (
{
glyphname = A;
kernLeft = A;
kernRight = A;
lastChange = "2023-07-14 07:03:07 +0000";
layers = (
{
layerId = m01;
shapes = (
{
closed = 1;
nodes = (
(244,42,l),
(221,42,ls),
(177,42,o),
(155,58.333,o),
(155,91,cs),
(155,103.667,o),
(158,118,o),
(164,134,cs),
(202,239,l),
(465,239,l),
(505,127,ls),
(510.333,112.333,o),
(513,100.667,o),
(513,90,cs),
(513,58,o),
(493,42,o),
(453,42,cs),
(430,42,l),
(430,0,l),
(705,0,l),
(705,42,l),
(692,42,ls),
(653.333,42,o),
(635.667,53.667,o),
(621,95,cs),
(395,714,l),
(317,714,l),
(95,120,ls),
(71,56,o),
(57.667,42,o),
(19,42,cs),
(0,42,l),
(0,0,l),
(244,0,l),
(244,0,l)
);
},
{
closed = 1;
nodes = (
(311.667,535.667,o),
(325.667,574,o),
(335,622,c),
(345.667,574,o),
(363.667,522.667,o),
(385,464,cs),
(447,289,l),
(221,289,l),
(289,473,l),
(289,473,l)
);
}
);
width = 705;
}
);
note = A;
unicode = 65;
},
{
glyphname = A.bubble;
kernLeft = A;
kernRight = A;
lastChange = "2023-07-14 09:17:50 +0000";
layers = (
{
background = {
shapes = (
{
closed = 1;
nodes = (
(244,42,l),
(221,42,ls),
(177,42,o),
(155,58.333,o),
(155,91,cs),
(155,103.667,o),
(158,118,o),
(164,134,cs),
(202,239,l),
(465,239,l),
(505,127,ls),
(510.333,112.333,o),
(513,100.667,o),
(513,90,cs),
(513,58,o),
(493,42,o),
(453,42,cs),
(430,42,l),
(430,0,l),
(705,0,l),
(705,42,l),
(692,42,ls),
(653.333,42,o),
(635.667,53.667,o),
(621,95,cs),
(395,714,l),
(317,714,l),
(95,120,ls),
(71,56,o),
(57.667,42,o),
(19,42,cs),
(0,42,l),
(0,0,l),
(244,0,l),
(244,0,l)
);
},
{
closed = 1;
nodes = (
(311.667,535.667,o),
(325.667,574,o),
(335,622,c),
(345.667,574,o),
(363.667,522.667,o),
(385,464,cs),
(447,289,l),
(221,289,l),
(289,473,l),
(289,473,l)
);
}
);
};
layerId = m01;
shapes = (
{
closed = 1;
nodes = (
(523,720,l),
(745,0,l),
(-21,3,l),
(163,720,l)
);
}
);
width = 968;
}
);
note = A;
},
{
glyphname = B;
kernLeft = B;
kernRight = B;
lastChange = "2023-07-14 07:03:07 +0000";
layers = (
{
layerId = m01;
shapes = (
{
closed = 1;
nodes = (
(507.333,0,o),
(593,64.333,o),
(593,193,cs),
(593,299.667,o),
(529.667,358,o),
(439,374,c),
(439,378,l),
(509.667,400.667,o),
(563,445.667,o),
(563,535,cs),
(563,657.667,o),
(479.333,714,o),
(306,714,cs),
(38,714,l),
(38,672,l),
(51,672,ls),
(95,672,o),
(133,662.667,o),
(133,604,cs),
(133,114,ls),
(133,51.333,o),
(96.333,42,o),
(51,42,cs),
(38,42,l),
(38,0,l),
(336,0,l),
(336,0,l)
);
},
{
closed = 1;
nodes = (
(234,664,l),
(301,664,ls),
(414.333,664,o),
(456,633.667,o),
(456,535,cs),
(456,439,o),
(420.333,399,o),
(303,399,cs),
(234,399,l),
(234,399,l)
);
},
{
closed = 1;
nodes = (
(234,349,l),
(333,349,ls),
(450.333,349,o),
(486,300,o),
(486,196,cs),
(486,89.333,o),
(444.333,50,o),
(331,50,cs),
(234,50,l),
(234,50,l)
);
}
);
width = 654;
}
);
note = B;
unicode = 66;
},
{
glyphname = C;
kernLeft = C;
lastChange = "2023-07-14 07:03:07 +0000";
layers = (
{
layerId = m01;
shapes = (
{
closed = 1;
nodes = (
(459.667,-10,o),
(522.333,16.333,o),
(553,51,cs),
(568.333,68.333,o),
(576,85.333,o),
(576,102,cs),
(576,122,o),
(567.667,134.333,o),
(557,141,c),
(523.667,95.667,o),
(473.333,56,o),
(376,56,cs),
(229.703,56,o),
(168,177.851,o),
(168,358,cs),
(168,558,o),
(225.333,671,o),
(376,671,cs),
(434.667,671,o),
(467.333,641.833,o),
(482,602.5,cs),
(489.333,582.833,o),
(493,562.667,o),
(493,542,c),
(542.333,542,o),
(580,569.333,o),
(580,612,cs),
(580,676,o),
(514,724,o),
(378,724,cs),
(173.206,724,o),
(57,581.692,o),
(57,358,cs),
(57,130.884,o),
(167.024,-10,o),
(361,-10,cs)
);
}
);
width = 614;
}
);
note = C;
unicode = 67;
},
{
glyphname = C.bubble;
kernLeft = C;
lastChange = "2023-07-14 08:37:14 +0000";
layers = (
{
layerId = m01;
shapes = (
{
closed = 1;
nodes = (
(588,-48,o),
(631,179,o),
(631,393,cs),
(631,583,o),
(616,762,o),
(383,762,cs),
(157,762,o),
(29,605,o),
(29,358,cs),
(29,108,o),
(150,-48,o),
(364,-48,cs)
);
}
);
width = 614;
}
);
note = C;
},
{
glyphname = D;
kernLeft = B;
kernRight = D;
lastChange = "2023-07-14 07:03:07 +0000";
layers = (
{
layerId = m01;
shapes = (
{
closed = 1;
nodes = (
(557.112,0,o),
(670,133.97,o),
(670,358,cs),
(670,584.667,o),
(550.667,714,o),
(344,714,cs),
(38,714,l),
(38,672,l),
(51,672,ls),
(95,672,o),
(133,662.667,o),
(133,604,cs),
(133,114,ls),
(133,51.333,o),
(96.333,42,o),
(51,42,cs),
(38,42,l),
(38,0,l),
(344,0,l),
(344,0,l)
);
},
{
closed = 1;
nodes = (
(234,664,l),
(322,664,ls),
(480.667,664,o),
(559,556.667,o),
(559,358,cs),
(559,160.667,o),
(479.667,51,o),
(321,51,cs),
(234,51,l),
(234,51,l)
);
}
);
width = 727;
}
);
note = D;
unicode = 68;
},
{
glyphname = E;
kernLeft = B;
kernRight = E;
lastChange = "2023-07-14 07:03:07 +0000";
layers = (
{
layerId = m01;
shapes = (
{
closed = 1;
nodes = (
(581,175,l),
(529,175,l),
(522,132,ls),
(515.333,88,o),
(489.667,50,o),
(427,50,cs),
(234,50,l),
(234,349,l),
(475,349,l),
(475,398,l),
(234,398,l),
(234,664,l),
(402,664,ls),
(462,664,o),
(484.667,626,o),
(490,582,cs),
(495,539,l),
(547,539,l),
(542,714,l),
(38,714,l),
(38,672,l),
(51,672,ls),
(96.333,672,o),
(133,662.667,o),
(133,600,cs),
(133,109,ls),
(133,50.333,o),
(95,42,o),
(51,42,cs),
(38,42,l),
(38,0,l),
(574,0,l),
(574,0,l)
);
}
);
width = 623;
}
);
note = E;
unicode = 69;
},
{
glyphname = F;
kernLeft = B;
kernRight = F;
lastChange = "2023-07-14 07:03:07 +0000";
layers = (
{
layerId = m01;
shapes = (
{
closed = 1;
nodes = (
(349,42,l),
(316,42,ls),
(270.667,42,o),
(234,51.333,o),
(234,114,cs),
(234,326,l),
(475,326,l),
(475,375,l),
(234,375,l),
(234,664,l),
(398,664,ls),
(460.667,664,o),
(484.667,627.333,o),
(490,582,cs),
(495,539,l),
(547,539,l),
(542,714,l),
(38,714,l),
(38,672,l),
(51,672,ls),
(95,672,o),
(133,662.667,o),
(133,604,cs),
(133,109,ls),
(133,50.333,o),
(95,42,o),
(51,42,cs),
(38,42,l),
(38,0,l),
(349,0,l),
(349,0,l)
);
}
);
width = 590;
}
);
note = F;
unicode = 70;
},
{
glyphname = G;
kernLeft = C;
kernRight = G;
lastChange = "2023-07-14 07:03:07 +0000";
layers = (
{
layerId = m01;
shapes = (
{
closed = 1;
nodes = (
(487.667,-10,o),
(555.333,5.333,o),
(622,36,c),
(622,216,ls),
(622,278.667,o),
(653.667,288,o),
(691,288,cs),
(695,288,l),
(695,330,l),
(435,330,l),
(435,288,l),
(439,288,ls),
(483,288,o),
(521,278.667,o),
(521,220,cs),
(521,59,l),
(493,51,o),
(455.667,47,o),
(417,47,cs),
(235.667,47,o),
(168,158,o),
(168,358,cs),
(168,558,o),
(233.667,671,o),
(403,671,cs),
(468.333,671,o),
(505.833,641.833,o),
(522.5,602.5,cs),
(530.833,582.833,o),
(535,562.667,o),
(535,542,c),
(587,542,o),
(628,569.333,o),
(628,612,cs),
(628,644,o),
(609.667,670.667,o),
(573,692,cs),
(536.333,713.333,o),
(481,724,o),
(407,724,cs),
(182.381,724,o),
(57,581.887,o),
(57,358,cs),
(57,130.201,o),
(173.38,-10,o),
(401,-10,cs)
);
}
);
width = 714;
}
);
note = G;
unicode = 71;
},
{
glyphname = H;
kernLeft = B;
lastChange = "2023-07-14 07:03:07 +0000";
layers = (
{
layerId = m01;
shapes = (
{
closed = 1;
nodes = (
(329,42,l),
(316,42,ls),
(270.667,42,o),
(234,51.333,o),
(234,114,cs),
(234,348,l),
(559,348,l),
(559,114,ls),
(559,51.333,o),
(522.333,42,o),
(477,42,cs),
(464,42,l),
(464,0,l),
(755,0,l),
(755,42,l),
(742,42,ls),
(698,42,o),
(660,50.333,o),
(660,109,cs),
(660,600,ls),
(660,662.667,o),
(696.667,672,o),
(742,672,cs),
(755,672,l),
(755,714,l),
(464,714,l),
(464,672,l),
(477,672,ls),
(522.333,672,o),
(559,662.667,o),
(559,600,cs),
(559,398,l),
(234,398,l),
(234,600,ls),
(234,662.667,o),
(270.667,672,o),
(316,672,cs),
(329,672,l),
(329,714,l),
(38,714,l),
(38,672,l),
(51,672,ls),
(95,672,o),
(133,662.667,o),
(133,604,cs),
(133,114,ls),
(133,51.333,o),
(96.333,42,o),
(51,42,cs),
(38,42,l),
(38,0,l),
(329,0,l),
(329,0,l)
);
}
);
width = 793;
}
);
note = H;
unicode = 72;
},
{
glyphname = I;
kernLeft = B;
lastChange = "2023-07-14 07:03:07 +0000";
layers = (
{
layerId = m01;
shapes = (
{
closed = 1;
nodes = (
(329,42,l),
(316,42,ls),
(270.667,42,o),
(234,51.333,o),
(234,114,cs),
(234,600,ls),
(234,662.667,o),
(270.667,672,o),
(316,672,cs),
(329,672,l),
(329,714,l),
(38,714,l),
(38,672,l),
(51,672,ls),
(96.333,672,o),
(133,662.667,o),
(133,600,cs),
(133,114,ls),
(133,51.333,o),
(96.333,42,o),
(51,42,cs),
(38,42,l),
(38,0,l),
(329,0,l),
(329,0,l)
);
}
);
width = 367;
}
);
note = I;
unicode = 73;
},
{
glyphname = J;
kernLeft = J;
lastChange = "2023-07-14 07:03:07 +0000";
layers = (
{
layerId = m01;
shapes = (
{
closed = 1;
nodes = (
(91.333,-240,o),
(162.833,-216,o),
(203.5,-148,cs),
(223.833,-114,o),
(234,-67.333,o),
(234,-8,cs),
(234,600,ls),
(234,662.667,o),
(270.667,672,o),
(316,672,cs),
(329,672,l),
(329,714,l),
(38,714,l),
(38,672,l),
(51,672,ls),
(95,672,o),
(133,662.667,o),
(133,604,cs),
(133,-9,ls),
(133,-144.747,o),
(87.044,-193,o),
(-2,-193,cs),
(-11,-193,l),
(-11,-240,l),
(6,-240,l),
(6,-240,l)
);
}
);
width = 357;
}
);
note = J;
unicode = 74;
},
{
glyphname = K;
kernLeft = B;
kernRight = K;
lastChange = "2023-07-14 07:03:07 +0000";
layers = (
{
layerId = m01;
shapes = (
{
closed = 1;
nodes = (
(329,42,l),
(316,42,ls),
(270.667,42,o),
(234,51.333,o),
(234,114,cs),
(234,253,l),
(319,337,l),
(491,90,ls),
(541.946,17.604,o),
(567.412,0,o),
(701,0,cs),
(712,0,l),
(712,42,l),
(710,42,ls),
(672.667,42,o),
(638.667,70,o),
(600,122,cs),
(389,416,l),
(534,579,ls),
(586,637.667,o),
(622.667,673,o),
(668,673,c),
(668,714,l),
(447,714,l),
(447,673,l),
(463.667,673,o),
(476,671.5,o),
(484,668.5,cs),
(492,665.5,o),
(496,659.667,o),
(496,651,cs),
(496,641.667,o),
(492.167,629.5,o),
(484.5,614.5,cs),
(476.833,599.5,o),
(462.333,579.667,o),
(441,555,cs),
(234,318,l),
(234,600,ls),
(234,662.667,o),
(270.667,672,o),
(316,672,cs),
(329,672,l),
(329,714,l),
(38,714,l),
(38,672,l),
(51,672,ls),
(95,672,o),
(133,662.667,o),
(133,604,cs),
(133,109,ls),
(133,50.333,o),
(95,42,o),
(51,42,cs),
(38,42,l),
(38,0,l),
(329,0,l),
(329,0,l)
);
}
);
width = 700;
}
);
note = K;
unicode = 75;
},
{
glyphname = L;
kernLeft = B;
kernRight = L;
lastChange = "2023-07-14 07:03:07 +0000";
layers = (
{
layerId = m01;
shapes = (
{
closed = 1;
nodes = (
(581,215,l),
(529,215,l),
(519,140,ls),
(512.762,96.333,o),
(491.694,50,o),
(431,50,cs),
(234,50,l),
(234,604,ls),
(234,662.667,o),
(272,672,o),
(316,672,cs),
(329,672,l),
(329,714,l),
(38,714,l),
(38,672,l),
(51,672,ls),
(96.333,672,o),
(133,662.667,o),
(133,600,cs),
(133,114,ls),
(133,51.333,o),
(96.333,42,o),
(51,42,cs),
(38,42,l),
(38,0,l),
(574,0,l),
(574,0,l)
);
}
);
width = 623;
}
);
note = L;
unicode = 76;
},
{
glyphname = L.bubble;
kernLeft = B;
kernRight = L;
lastChange = "2023-07-14 09:09:23 +0000";
layers = (
{
background = {
shapes = (
{
closed = 1;
nodes = (
(581,215,l),
(529,215,l),
(519,140,ls),
(512.762,96.333,o),
(491.694,50,o),
(431,50,cs),
(234,50,l),
(234,604,ls),
(234,662.667,o),
(272,672,o),
(316,672,cs),
(329,672,l),
(329,714,l),
(38,714,l),
(38,672,l),
(51,672,ls),
(96.333,672,o),
(133,662.667,o),
(133,600,cs),
(133,114,ls),
(133,51.333,o),
(96.333,42,o),
(51,42,cs),
(38,42,l),
(38,0,l),
(574,0,l),
(574,0,l)
);
}
);
};
layerId = m01;
shapes = (
{
closed = 1;
nodes = (
(24,0,l),
(650,0,l),
(441,676,l),
(28,677,l),
(28,677,l)
);
}
);
width = 623;
}
);
note = L;
},
{
glyphname = M;
kernLeft = B;
lastChange = "2023-07-14 07:03:07 +0000";
layers = (
{
layerId = m01;
shapes = (
{
closed = 1;
nodes = (
(269,42,l),
(266,42,ls),
(220.667,42,o),
(194,51.333,o),
(194,114,cs),
(194,637,l),
(426,0,l),
(480,0,l),
(709,639,l),
(709,105,l),
(706.333,50.333,o),
(679.667,42,o),
(637,42,cs),
(634,42,l),
(634,0,l),
(900,0,l),
(900,42,l),
(887,42,ls),
(841.667,42,o),
(805,51.333,o),
(805,114,cs),
(805,600,ls),
(805,662.667,o),
(841.667,672,o),
(887,672,cs),
(900,672,l),
(900,714,l),
(678,714,l),
(473,142,l),
(266,714,l),
(38,714,l),
(38,672,l),
(51,672,ls),
(95,672,o),
(133,662.667,o),
(133,604,cs),
(133,109,ls),
(133,50.333,o),
(95,42,o),
(51,42,cs),
(38,42,l),
(38,0,l),
(269,0,l),
(269,0,l)
);
}
);
width = 938;
}
);
note = M;
unicode = 77;
},
{
glyphname = N;
kernLeft = B;
kernRight = N;
lastChange = "2023-07-14 07:03:07 +0000";
layers = (
{
layerId = m01;
shapes = (
{
closed = 1;
nodes = (
(289,42,l),
(276,42,ls),
(230.667,42,o),
(194,51.333,o),
(194,114,cs),
(194,576,l),
(569,0,l),
(640,0,l),
(640,600,ls),
(640,662.667,o),
(676.667,672,o),
(722,672,cs),
(735,672,l),
(735,714,l),
(484,714,l),
(484,672,l),
(497,672,ls),
(541,672,o),
(579,662.667,o),
(579,604,cs),
(579,161,l),
(221,714,l),
(38,714,l),
(38,672,l),
(51,672,ls),
(95,672,o),
(133,662.667,o),
(133,604,cs),
(133,114,ls),
(133,51.333,o),
(96.333,42,o),
(51,42,cs),
(38,42,l),
(38,0,l),
(289,0,l),
(289,0,l)
);
}
);
width = 763;
}
);
note = N;
unicode = 78;
},
{
glyphname = O;
kernLeft = C;
kernRight = D;
lastChange = "2023-07-14 07:03:07 +0000";
layers = (
{
layerId = m01;
shapes = (
{
closed = 1;
nodes = (
(568.509,-10,o),
(685,130.756,o),
(685,358,cs),
(685,506,o),
(635.167,618.833,o),
(542.5,679.5,cs),
(496.167,709.833,o),
(439.333,725,o),
(372,725,cs),
(167.66,725,o),
(56,591.611,o),
(56,359,cs),
(56,130.105,o),
(163.192,-10,o),
(371,-10,cs)
);
},
{
closed = 1;
nodes = (
(223,44,o),
(167,160.667,o),
(167,358,cs),
(167,556.667,o),
(222.667,671,o),
(372,671,cs),
(520,671,o),
(574,556.667,o),
(574,358,cs),
(574,160.667,o),
(520.333,44,o),
(371,44,cs)
);
}
);
width = 742;
}
);
note = O;
unicode = 79;
},
{
glyphname = O.bubble;
kernLeft = C;
kernRight = D;
lastChange = "2023-07-14 08:35:28 +0000";
layers = (
{
background = {
shapes = (
{
closed = 1;
nodes = (
(573,-10,o),
(689,131,o),
(689,358,cs),
(689,506,o),
(639,619,o),
(547,680,cs),
(500,710,o),
(443,725,o),
(376,725,cs),
(172,725,o),
(60,592,o),
(60,359,cs),
(60,130,o),
(167,-10,o),
(375,-10,cs)
);
},
{
closed = 1;
nodes = (
(227,44,o),
(171,161,o),
(171,358,cs),
(171,557,o),
(227,671,o),
(376,671,cs),
(524,671,o),
(578,557,o),
(578,358,cs),
(578,161,o),
(524,44,o),
(375,44,cs)
);
}
);
};
layerId = m01;
shapes = (
{
closed = 1;
nodes = (
(710,22,l),
(749,358,l),
(702,702,l),
(386,784,l),
(64,697,l),
(20,359,l),
(51,14,l),
(385,-69,l)
);
}
);
width = 789;
}
);
note = O;
},
{
glyphname = P;
kernLeft = B;
kernRight = asterisk;
lastChange = "2023-07-14 07:03:07 +0000";
layers = (
{
layerId = m01;
shapes = (
{
closed = 1;
nodes = (
(349,42,l),
(316,42,ls),
(272,42,o),
(234,50.333,o),
(234,109,cs),
(234,278,l),
(297,278,ls),
(429,278,o),
(505.5,324.667,o),
(539.5,394,cs),
(556.5,428.667,o),
(565,465.667,o),
(565,505,cs),
(565,635.667,o),
(487,714,o),
(319,714,cs),
(38,714,l),
(38,672,l),
(51,672,ls),
(95,672,o),
(133,662.667,o),
(133,604,cs),
(133,114,ls),
(133,51.333,o),
(96.333,42,o),
(51,42,cs),
(38,42,l),
(38,0,l),
(349,0,l),
(349,0,l)
);
},
{
closed = 1;
nodes = (
(234,666,l),
(302,666,ls),
(415.333,666,o),
(457,613,o),
(457,501,cs),
(457,374.333,o),
(408.333,325,o),
(287,325,cs),
(234,325,l),
(234,325,l)
);
}
);
width = 604;
}
);
note = P;
unicode = 80;
},
{
glyphname = P.bubble;
kernLeft = B;
kernRight = asterisk;
lastChange = "2023-07-14 09:19:31 +0000";
layers = (
{
background = {
shapes = (
{
closed = 1;
nodes = (
(349,42,l),
(316,42,ls),
(272,42,o),
(234,50.333,o),
(234,109,cs),
(234,278,l),
(297,278,ls),
(429,278,o),
(505.5,324.667,o),
(539.5,394,cs),
(556.5,428.667,o),
(565,465.667,o),
(565,505,cs),
(565,635.667,o),
(487,714,o),
(319,714,cs),
(38,714,l),
(38,672,l),
(51,672,ls),
(95,672,o),
(133,662.667,o),
(133,604,cs),
(133,114,ls),
(133,51.333,o),
(96.333,42,o),
(51,42,cs),
(38,42,l),
(38,0,l),
(349,0,l),
(349,0,l)
);
},
{
closed = 1;
nodes = (
(234,666,l),
(302,666,ls),
(415.333,666,o),
(457,613,o),
(457,501,cs),
(457,374.333,o),
(408.333,325,o),
(287,325,cs),
(234,325,l),
(234,325,l)
);
}
);
};
layerId = m01;
shapes = (
{
closed = 1;
nodes = (
(602,243,l),
(575,748,l),
(-3,731,l),
(-17,-22,l),
(464,-22,l)
);
}
);
width = 604;
}
);
note = P;
},
{
glyphname = Q;
kernLeft = C;
kernRight = D;
lastChange = "2023-07-14 07:03:07 +0000";
layers = (
{
layerId = m01;
shapes = (
{
closed = 1;
nodes = (
(602,-183,l),
(586,-183,ls),
(501.534,-183,o),
(449.707,-136.676,o),
(438,-4,c),
(599.148,26.215,o),
(685,164.229,o),
(685,358,cs),
(685,506,o),
(635.167,618.833,o),
(542.5,679.5,cs),
(496.167,709.833,o),
(439.333,725,o),
(372,725,cs),
(167.66,725,o),
(56,591.611,o),
(56,359,cs),
(56,142.45,o),
(151.453,11.401,o),
(328,-8,c),
(337.333,-121.333,o),
(388.167,-183.333,o),
(455.5,-210,cs),
(489.167,-223.333,o),
(523.667,-230,o),
(559,-230,cs),
(602,-230,l),
(602,-230,l)
);
},
{
closed = 1;
nodes = (
(223,44,o),
(167,160.667,o),
(167,358,cs),
(167,556.667,o),
(222.667,671,o),
(372,671,cs),
(520,671,o),
(574,556.667,o),
(574,358,cs),
(574,160.667,o),
(520.333,44,o),
(371,44,cs)
);
}
);
width = 742;
}
);
note = Q;
unicode = 81;
},
{
glyphname = R;
kernLeft = B;
kernRight = R;
lastChange = "2023-07-14 07:03:07 +0000";
layers = (
{
layerId = m01;
shapes = (
{
closed = 1;
nodes = (
(329,42,l),
(316,42,ls),
(272,42,o),
(234,50.333,o),
(234,109,cs),
(234,315,l),
(317,315,l),
(452,90,ls),
(482.667,39.333,o),
(505.5,15.167,o),
(551.5,6.5,cs),
(574.5,2.167,o),
(606.667,0,o),
(648,0,cs),
(662,0,l),
(662,42,l),
(659,42,ls),
(617.667,42,o),
(588.667,68.667,o),
(554,122,cs),
(417,339,l),
(465,355,o),
(512.667,382.833,o),
(542,431.5,cs),
(556.667,455.833,o),
(564,485.667,o),
(564,521,cs),
(564,649.667,o),
(478.333,714,o),
(307,714,cs),
(38,714,l),
(38,672,l),
(51,672,ls),
(95,672,o),
(133,662.667,o),
(133,604,cs),
(133,109,ls),
(133,50.333,o),
(95,42,o),
(51,42,cs),
(38,42,l),
(38,0,l),
(329,0,l),
(329,0,l)
);
},
{
closed = 1;
nodes = (
(234,666,l),
(302,666,ls),
(415.333,666,o),
(457,624.667,o),
(457,518,cs),
(457,414,o),
(421.333,362,o),
(304,362,cs),
(234,362,l),
(234,362,l)
);
}
);
width = 656;
}
);
note = R;
unicode = 82;
},
{
glyphname = S;
kernLeft = S;
kernRight = S;
lastChange = "2023-07-14 07:03:07 +0000";
layers = (
{
layerId = m01;
shapes = (
{
closed = 1;
nodes = (
(397.667,-10,o),
(493,64.333,o),
(493,191,cs),
(493,293.667,o),
(424.333,350,o),
(307,398,cs),
(229.667,430,o),
(185.833,455.833,o),
(166.5,492.5,cs),
(156.833,510.833,o),
(152,533.333,o),
(152,560,cs),
(152,629.333,o),
(196.667,674,o),
(274,674,cs),
(353.322,674,o),
(386,615.498,o),
(386,547,c),
(434,547,o),
(465,569.333,o),
(465,612,cs),
(465,670.667,o),
(396.667,724,o),
(278,724,cs),
(146.612,724,o),
(59,653.562,o),
(59,543,cs),
(59,433.667,o),
(119,371.667,o),
(243,321,cs),
(350.121,277.425,o),
(398,242.224,o),
(398,165,cs),
(398,83.667,o),
(344.333,39,o),
(255,39,cs),
(165.366,39,o),
(124.383,108.149,o),
(120,198,c),
(74.667,198,o),
(48,171,o),
(48,131,cs),
(48,47,o),
(116.333,-10,o),
(247,-10,cs)
);
}
);
width = 544;
}
);
note = S;
unicode = 83;
},
{
glyphname = T;
kernLeft = question;
kernRight = T;
lastChange = "2023-07-14 07:03:07 +0000";
layers = (
{
layerId = m01;
shapes = (
{
closed = 1;
nodes = (
(461,42,l),
(438,42,ls),
(392.667,42,o),
(356,51.333,o),
(356,114,cs),
(356,664,l),
(453,664,ls),
(513,664,o),
(530.667,626,o),
(536,582,cs),
(541,539,l),
(593,539,l),
(588,714,l),
(25,714,l),
(20,539,l),
(72,539,l),
(77,582,ls),
(82.333,626,o),
(100.333,664,o),
(159,664,cs),
(255,664,l),
(255,109,ls),
(255,50.333,o),
(217,42,o),
(173,42,cs),
(150,42,l),
(150,0,l),
(461,0,l),
(461,0,l)
);
}
);
width = 613;
}
);
note = T;
unicode = 84;
},
{
glyphname = T.bubble;
kernLeft = question;
kernRight = T;
lastChange = "2023-07-14 09:15:44 +0000";
layers = (
{
background = {
shapes = (
{
closed = 1;
nodes = (
(461,42,l),
(438,42,ls),
(392.667,42,o),
(356,51.333,o),
(356,114,cs),
(356,664,l),
(453,664,ls),
(513,664,o),
(530.667,626,o),
(536,582,cs),
(541,539,l),
(593,539,l),
(588,714,l),
(25,714,l),
(20,539,l),
(72,539,l),
(77,582,ls),
(82.333,626,o),
(100.333,664,o),
(159,664,cs),
(255,664,l),
(255,109,ls),
(255,50.333,o),
(217,42,o),
(173,42,cs),
(150,42,l),
(150,0,l),
(461,0,l),
(461,0,l)
);
}
);
};
layerId = m01;
shapes = (
{
closed = 1;
nodes = (
(590,307,l),
(638,652,l),
(5,652,l),
(82,310,l),
(104,2,l),
(524,2,l)
);
}
);
width = 661;
}
);
note = T;
},
{
glyphname = U;
kernLeft = U;
kernRight = U;
lastChange = "2023-07-14 07:03:07 +0000";
layers = (
{
layerId = m01;
shapes = (
{
closed = 1;
nodes = (
(520.667,-10,o),
(607,70.667,o),
(607,204,cs),
(607,600,ls),
(607,662.667,o),
(643.667,672,o),
(689,672,cs),
(702,672,l),
(702,714,l),
(451,714,l),
(451,672,l),
(464,672,ls),
(508,672,o),
(546,662.667,o),
(546,604,cs),
(546,206,ls),
(546,115.333,o),
(492.667,50,o),
(378,50,cs),
(280.667,50,o),
(211,94,o),
(211,210,cs),
(211,600,ls),
(211,662.667,o),
(247.667,672,o),
(293,672,cs),
(306,672,l),
(306,714,l),
(15,714,l),
(15,672,l),
(28,672,ls),
(72,672,o),
(110,662.667,o),
(110,604,cs),
(110,216,ls),
(110,53.333,o),
(204.667,-10,o),
(362,-10,cs)
);
}
);
width = 717;
}
);
note = U;
unicode = 85;
},
{
glyphname = V;
kernLeft = V;
kernRight = V;
lastChange = "2023-07-14 07:03:07 +0000";
layers = (
{
layerId = m01;
shapes = (
{
closed = 1;
nodes = (
(373,0,l),
(580,594,ls),
(602.667,659.333,o),
(617.333,672,o),
(656,672,cs),
(675,672,l),
(675,714,l),
(431,714,l),
(431,672,l),
(454,672,ls),
(498,672,o),
(520,655.667,o),
(520,623,cs),
(520,612.333,o),
(516.333,596,o),
(511,580,cs),
(401,262,ls),
(379.667,200.667,o),
(365.667,146,o),
(355,98,c),
(344.333,146,o),
(330,203.333,o),
(310,262,cs),
(200,587,ls),
(194.667,601.667,o),
(192,613.333,o),
(192,624,cs),
(192,656,o),
(212,672,o),
(252,672,cs),
(275,672,l),
(275,714,l),
(0,714,l),
(0,672,l),
(13,672,ls),
(51.667,672,o),
(70.667,661.667,o),
(84,619,cs),
(300,0,l),
(300,0,l)
);
}
);
width = 675;
}
);
note = V;
unicode = 86;
},
{
glyphname = V.bubble;
kernLeft = V;
kernRight = V;
lastChange = "2023-07-14 09:16:55 +0000";
layers = (
{
background = {
shapes = (
{
closed = 1;
nodes = (
(406,0,l),
(613,594,ls),
(636,659,o),
(650,672,o),
(689,672,cs),
(708,672,l),
(708,714,l),
(464,714,l),
(464,672,l),
(487,672,ls),
(531,672,o),
(553,656,o),
(553,623,cs),
(553,612,o),
(549,596,o),
(544,580,cs),
(434,262,ls),
(413,201,o),
(399,146,o),
(388,98,c),
(377,146,o),
(363,203,o),
(343,262,cs),
(233,587,ls),
(228,602,o),
(225,613,o),
(225,624,cs),
(225,656,o),
(245,672,o),
(285,672,cs),
(308,672,l),
(308,714,l),
(33,714,l),
(33,672,l),
(46,672,ls),
(85,672,o),
(104,662,o),
(117,619,cs),
(333,0,l),
(333,0,l)
);
}
);
};
layerId = m01;
shapes = (
{
closed = 1;
nodes = (
(726,677,l),
(504,2,l),
(178,2,l),
(3,677,l)
);
}
);
width = 636;
}
);
note = V;
},
{
glyphname = W;
kernLeft = W;
kernRight = W;
lastChange = "2023-07-14 07:03:07 +0000";
layers = (
{
layerId = m01;
shapes = (
{
closed = 1;
nodes = (
(368,0,l),
(521,560,l),
(684,0,l),
(774,0,l),
(943,594,ls),
(961.667,660.667,o),
(980.333,672,o),
(1019,672,cs),
(1038,672,l),
(1038,714,l),
(794,714,l),
(794,672,l),
(817,672,ls),
(861,672,o),
(883,655.667,o),
(883,623,cs),
(883,612.333,o),
(876,587,o),
(872,571,cs),
(784,262,ls),
(766.667,198,o),
(754.667,146,o),
(744,98,c),
(734.667,144.667,o),
(719.667,208.667,o),
(701,274,cs),
(576,707,l),
(504,707,l),
(385,278,ls),
(367.667,214,o),
(354.667,150,o),
(344,98,c),
(333.333,146,o),
(318.333,207,o),
(301,267,cs),
(209,587,ls),
(207,594.333,o),
(205.167,601,o),
(203.5,607,cs),
(201.833,613,o),
(201,618.667,o),
(201,624,cs),
(201,656,o),
(221,672,o),
(261,672,cs),
(284,672,l),
(284,714,l),
(9,714,l),
(9,672,l),
(22,672,ls),
(60.667,672,o),
(79.667,661.667,o),
(93,619,cs),
(276,0,l),
(276,0,l)
);
}
);
width = 1047;
}
);
note = W;
unicode = 87;
},
{
glyphname = X;
kernLeft = X;
kernRight = X;
lastChange = "2023-07-14 07:03:07 +0000";
layers = (
{
layerId = m01;
shapes = (
{
closed = 1;
nodes = (
(246,42,l),
(243,42,ls),
(199.667,42,o),
(178,52.333,o),
(178,73,cs),
(178,94.333,o),
(193.333,121.667,o),
(204,139,cs),
(315,303,l),
(414,144,ls),
(428,122,o),
(437,106.833,o),
(441,98.5,cs),
(445,90.167,o),
(447,82.333,o),
(447,75,cs),
(447,53,o),
(427,42,o),
(387,42,cs),
(382,42,l),
(382,0,l),
(652,0,l),
(652,42,l),
(639,42,ls),
(613.667,42,o),
(588.333,56.333,o),
(559,95,c),
(375,391,l),
(520,600,ls),
(558.667,654.667,o),
(580.333,672,o),
(619,672,cs),
(628,672,l),
(628,714,l),
(409,714,l),
(409,672,l),
(412,672,ls),
(442.667,672,o),
(466,667,o),
(466,643,cs),
(466,625.667,o),
(455.667,604.667,o),
(441,582,cs),
(346,438,l),
(256,584,ls),
(245.333,601.333,o),
(238.667,613.833,o),
(236,621.5,cs),
(233.333,629.167,o),
(232,636.333,o),
(232,643,cs),
(232,651,o),
(235.833,657.833,o),
(243.5,663.5,cs),
(251.167,669.167,o),
(266.333,672,o),
(289,672,cs),
(292,672,l),
(292,714,l),
(21,714,l),
(21,672,l),
(34,672,ls),
(64.667,672,o),
(96,657.667,o),
(120,619,cs),
(285,351,l),
(118,112,ls),
(82,60,o),
(62,42,o),
(14,42,cs),
(8,42,l),
(8,0,l),
(246,0,l),
(246,0,l)
);
}
);
width = 660;
}
);
note = X;
unicode = 88;
},
{
glyphname = Y;
kernLeft = Y;
kernRight = Y;
lastChange = "2023-07-14 07:03:07 +0000";
layers = (
{
layerId = m01;
shapes = (
{
closed = 1;
nodes = (
(470,42,l),
(447,42,ls),
(401.667,42,o),
(365,51.333,o),
(365,114,cs),
(365,298,l),
(533,594,ls),
(550.333,624,o),
(565,644.5,o),
(577,655.5,cs),
(589,666.5,o),
(602,672,o),
(616,672,cs),
(628,672,l),
(628,714,l),
(384,714,l),
(384,672,l),
(413,672,ls),
(453,672,o),
(473,657.333,o),
(473,628,cs),
(473,612,o),
(468.333,590.667,o),
(455,568,cs),
(391,453,ls),
(379.667,432.333,o),
(368.333,411.667,o),
(357,391,cs),
(345.667,370.333,o),
(337,353,o),
(331,339,c),
(320.333,369.667,o),
(303.667,411.667,o),
(281,453,cs),
(207,587,ls),
(199,601.667,o),
(189,621.333,o),
(189,640,cs),
(189,657.333,o),
(197,672,o),
(233,672,cs),
(270,672,l),
(270,714,l),
(-5,714,l),
(-5,672,l),
(8,672,ls),
(42.667,672,o),
(57.667,657.667,o),
(79,619,cs),
(264,298,l),
(264,109,ls),
(264,50.333,o),
(226,42,o),
(182,42,cs),
(159,42,l),
(159,0,l),
(470,0,l),
(470,0,l)
);
}
);
width = 625;
}
);
note = Y;
unicode = 89;
},
{
glyphname = Z;
kernLeft = Z;
kernRight = Z;
lastChange = "2023-07-14 07:03:07 +0000";
layers = (
{
layerId = m01;
shapes = (
{
closed = 1;
nodes = (
(550,175,l),
(498,175,l),
(493,132,ls),
(487.667,88,o),
(470,50,o),
(410,50,cs),
(158,50,l),
(534,673,l),
(534,714,l),
(60,714,l),
(55,539,l),
(107,539,l),
(112,582,ls),
(117.333,626,o),
(135.333,664,o),
(194,664,cs),
(411,664,l),
(36,40,l),
(36,0,l),
(545,0,l),
(545,0,l)
);
}
);
width = 592;
}
);
note = Z;
unicode = 90;
},
{
glyphname = a;
kernLeft = a;
kernRight = a;
lastChange = "2023-07-14 07:03:07 +0000";
layers = (
{
layerId = m01;
shapes = (
{
closed = 1;
nodes = (
(261,-10,o),
(293.333,7.833,o),
(320,36.5,cs),
(333.333,50.833,o),
(347,67.333,o),
(361,86,c),
(369,86,l),
(385,0,l),
(520,0,l),
(520,42,l),
(517,42,ls),
(471.667,42,o),
(455,58,o),
(455,114,cs),
(455,373,ls),
(455,499.667,o),
(394.667,546,o),
(272,546,cs),
(170.877,546,o),
(92,518.805,o),
(92,450,cs),
(92,404.667,o),
(121,387,o),
(177,387,c),
(177,457.476,o),
(195.889,496,o),
(268,496,cs),
(322.667,496,o),
(347,473.167,o),
(355,436.5,cs),
(359,418.167,o),
(361,397,o),
(361,373,cs),
(361,313,l),
(278,310,ls),
(124.667,304.667,o),
(50,256.667,o),
(50,150,cs),
(50,40.667,o),
(115.667,-10,o),
(205,-10,cs)
);
},
{
closed = 1;
nodes = (
(174,52,o),
(147,83,o),
(147,145,cs),
(147,223.667,o),
(183.667,263.667,o),
(297,269,cs),
(361,272,l),
(361,191,ls),
(361,105.667,o),
(309.333,52,o),
(228,52,cs)
);
}
);
width = 563;
}
);
note = a;
unicode = 97;
},
{
glyphname = b;
kernLeft = b;
kernRight = b;
lastChange = "2023-07-14 07:03:07 +0000";
layers = (
{
layerId = m01;
shapes = (
{
closed = 1;
nodes = (
(487,-10,o),
(559,75.667,o),
(559,269,cs),
(559,461,o),
(487,546,o),
(355,546,cs),
(277.667,546,o),
(232.667,507.333,o),
(202,446,c),
(198,446,l),
(199.754,465.294,o),
(202,519.937,o),
(202,576,cs),
(202,760,l),
(18,760,l),
(18,718,l),
(26,718,ls),
(70,718,o),
(108,708.667,o),
(108,650,cs),
(108,114,ls),
(108,51.333,o),
(71.333,42,o),
(26,42,cs),
(18,42,l),
(18,0,l),
(178,0,l),
(196,78,l),
(202,78,l),
(231.333,26,o),
(277.667,-10,o),
(355,-10,cs)
);
},
{
closed = 1;
nodes = (
(233.667,54,o),
(202,130.333,o),
(202,269,cs),
(202,413,o),
(234,482,o),
(338,482,cs),
(427.333,482,o),
(462,412.667,o),
(462,270,cs),
(462,130,o),
(427,54,o),
(339,54,cs)
);
}
);
width = 614;
}
);
note = b;
unicode = 98;
},
{
glyphname = c;
kernLeft = c;
lastChange = "2023-07-14 07:03:07 +0000";
layers = (
{
layerId = m01;
shapes = (
{
closed = 1;
nodes = (
(389.182,-10,o),
(453,37.064,o),
(453,86,cs),
(453,102.667,o),
(447.333,115.667,o),
(436,125,c),
(413.333,83.667,o),
(365.667,55,o),
(303,55,cs),
(196.333,55,o),
(152,124.667,o),
(152,266,cs),
(152,436.632,o),
(196.722,496,o),
(278,496,cs),
(344.667,496,o),
(363,443.667,o),
(363,381,c),
(421.667,381,o),
(452,398.667,o),
(452,444,cs),
(452,511.374,o),
(367.95,546,o),
(278,546,cs),
(194,546,o),
(123.833,515.5,o),
(84.5,433.5,cs),
(64.833,392.5,o),
(55,336.333,o),
(55,265,cs),
(55,134.333,o),
(96.833,55.333,o),
(165.5,18,cs),
(199.833,-0.667,o),
(239,-10,o),
(283,-10,cs)
);
}
);
width = 492;
}
);
note = c;
unicode = 99;
},
{
glyphname = d;
kernLeft = c;
lastChange = "2023-07-14 07:03:07 +0000";
layers = (
{
layerId = m01;
shapes = (
{
closed = 1;
nodes = (
(337.667,-10,o),
(382.667,28.667,o),
(412,90,c),
(416,90,l),
(427,0,l),
(596,0,l),
(596,42,l),
(588,42,ls),
(544,42,o),
(506,51.333,o),
(506,110,cs),
(506,760,l),
(322,760,l),
(322,718,l),
(330,718,ls),
(374,718,o),
(412,708.667,o),
(412,650,cs),
(412,568,ls),
(412,536,o),
(414,491.333,o),
(418,458,c),
(412,458,l),
(382.667,510,o),
(336.333,546,o),
(259,546,cs),
(127,546,o),
(55,460.333,o),
(55,267,cs),
(55,75,o),
(127,-10,o),
(259,-10,cs)
);
},
{
closed = 1;
nodes = (
(186.667,54,o),
(152,124.667,o),
(152,266,cs),
(152,406,o),
(187,482,o),
(275,482,cs),
(380.333,482,o),
(412,405.667,o),
(412,267,cs),
(412,123,o),
(380,54,o),
(276,54,cs)
);
}
);
width = 614;
}
);
note = d;
unicode = 100;
},
{
glyphname = e;
kernLeft = c;
kernRight = e;
lastChange = "2023-07-14 07:03:07 +0000";
layers = (
{
layerId = m01;
shapes = (
{
closed = 1;
nodes = (
(367,-10,o),
(418.667,15.333,o),
(444,46,cs),
(456.667,61.333,o),
(463,75.667,o),
(463,89,cs),
(463,106.333,o),
(453.333,119,o),
(444,123,c),
(420,87,o),
(370.333,53,o),
(301,53,cs),
(205,53,o),
(154.667,115.667,o),
(152,261,c),
(485,261,l),
(485,307,ls),
(485,465.667,o),
(406.333,546,o),
(277,546,cs),
(135.667,546,o),
(55,450.667,o),
(55,264,cs),
(55,90.667,o),
(141.667,-10,o),
(287,-10,cs)
);
},
{
closed = 1;
nodes = (
(160.667,429.667,o),
(201.667,492,o),
(275,492,cs),
(355,492,o),
(384,421.667,o),
(384,315,c),
(154,315,l),
(154,315,l)
);
}
);
width = 535;
}
);
note = e;
unicode = 101;
},
{
glyphname = f;
kernRight = f;
lastChange = "2023-07-14 07:03:07 +0000";
layers = (
{
layerId = m01;
shapes = (
{
closed = 1;
nodes = (
(336,42,l),
(298,42,ls),
(252.667,42,o),
(216,51.333,o),
(216,114,cs),
(216,489,l),
(357,489,l),
(357,536,l),
(216,536,l),
(216,595,ls),
(216,679,o),
(233.667,724,o),
(291,724,cs),
(341.667,724,o),
(357,684,o),
(357,644,c),
(405,644,o),
(439,664,o),
(439,700,cs),
(439,720.667,o),
(428.667,737.5,o),
(408,750.5,cs),
(387.333,763.5,o),
(351,770,o),
(299,770,cs),
(189.667,770,o),
(122,704.667,o),
(122,586,cs),
(122,536,l),
(31,536,l),
(31,489,l),
(122,489,l),
(122,114,ls),
(122,51.333,o),
(85.333,42,o),
(40,42,cs),
(27,42,l),
(27,0,l),
(336,0,l),
(336,0,l)
);
}
);
width = 369;
}
);
note = f;
unicode = 102;
},
{
glyphname = g;
kernLeft = c;
lastChange = "2023-07-14 07:03:07 +0000";
layers = (
{
layerId = m01;
shapes = (
{
closed = 1;
nodes = (
(412.333,-240,o),
(496,-167.667,o),
(496,-53,cs),
(496,33.667,o),
(449.667,96,o),
(331,96,cs),
(218,96,ls),
(166,96,o),
(156,110,o),
(156,134,cs),
(156,164.667,o),
(177.667,183.667,o),
(203,197,c),
(216.333,194.333,o),
(240,192,o),
(256,192,cs),
(377.333,192,o),
(436,265.333,o),
(436,364,cs),
(436,421.333,o),
(419.667,457,o),
(397,485,c),
(410.333,493,o),
(424.667,497,o),
(440,497,cs),
(466.667,497,o),
(473,477.667,o),
(473,463,c),
(510.333,463,o),
(526,487,o),
(526,515,cs),
(526,543,o),
(507,567,o),
(467,567,cs),
(423,567,o),
(388.667,534.333,o),
(370,513,c),
(351.333,530.333,o),
(304,546,o),
(256,546,cs),
(130.667,546,o),
(68,475.667,o),
(68,361,cs),
(68,294.333,o),
(100.667,234,o),
(158,210,c),
(112.667,183.333,o),
(93,156,o),
(93,116,cs),
(93,73.333,o),
(121.333,46,o),
(148,34,c),
(82.667,22,o),
(23,-15.333,o),
(23,-94,cs),
(23,-186,o),
(92.333,-240,o),
(231,-240,cs)
);
},
{
closed = 1;
nodes = (
(189,240,o),
(162,278.667,o),
(162,364,cs),
(162,453.333,o),
(188,497,o),
(252,497,cs),
(317.333,497,o),
(342,455.667,o),
(342,365,cs),
(342,278.333,o),
(318.333,240,o),
(253,240,cs)
);
},
{
closed = 1;
nodes = (
(134.751,-191,o),
(104,-148.858,o),
(104,-88,cs),
(104,-12.412,o),
(153.937,7,o),
(214,7,cs),
(312,7,ls),
(378.667,7,o),
(414,-8.667,o),
(414,-70,cs),
(414,-144,o),
(369.723,-191,o),
(233,-191,cs)
);
}
);
width = 538;
}
);
note = g;
unicode = 103;
},
{
glyphname = h;
kernLeft = b;
kernRight = a;
lastChange = "2023-07-14 07:03:07 +0000";
layers = (
{
layerId = m01;
shapes = (
{
closed = 1;
nodes = (
(287,42,l),
(284,42,ls),
(240,42,o),
(202,50.333,o),
(202,109,cs),
(202,320,ls),
(202,418.667,o),
(240.333,482,o),
(323,482,cs),
(404.333,482,o),
(433,431.667,o),
(433,345,cs),
(433,0,l),
(607,0,l),
(607,42,l),
(604,42,ls),
(558.667,42,o),
(527,51.333,o),
(527,114,cs),
(527,350,ls),
(527,487.333,o),
(464.667,546,o),
(350,546,cs),
(282.667,546,o),
(233.667,515.667,o),
(203,455,c),
(198,455,l),
(198,455,o),
(202,491.672,o),
(202,540,cs),
(202,760,l),
(18,760,l),
(18,718,l),
(26,718,ls),
(70,718,o),
(108,708.667,o),
(108,650,cs),
(108,114,ls),
(108,51.333,o),
(71.333,42,o),
(26,42,cs),
(18,42,l),
(18,0,l),
(287,0,l),
(287,0,l)
);
}
);
width = 635;
}
);
note = h;
unicode = 104;
},
{
glyphname = i;
kernLeft = i;
lastChange = "2023-07-14 07:03:07 +0000";
layers = (
{
layerId = m01;
shapes = (
{
closed = 1;
nodes = (
(191.667,636,o),
(218,652.667,o),
(218,698,cs),
(218,744.667,o),
(191.667,760,o),
(161,760,cs),
(129,760,o),
(104,744.667,o),
(104,698,cs),
(104,652.667,o),
(129,636,o),
(161,636,cs)
);
},
{
closed = 1;
nodes = (
(307,42,l),
(294,42,ls),
(248.667,42,o),
(212,51.333,o),
(212,114,cs),
(212,536,l),
(33,536,l),
(33,494,l),
(36,494,ls),
(80,494,o),
(118,484.667,o),
(118,426,cs),
(118,109,ls),
(118,50.333,o),
(80,42,o),
(36,42,cs),
(23,42,l),
(23,0,l),
(307,0,l),
(307,0,l)
);
}
);
width = 320;
}
);
note = i;
unicode = 105;
},
{
glyphname = j;
lastChange = "2023-07-14 07:03:07 +0000";
layers = (
{
layerId = m01;
shapes = (
{
closed = 1;
nodes = (
(181.667,636,o),
(208,652.667,o),
(208,698,cs),
(208,744.667,o),
(181.667,760,o),
(151,760,cs),
(119,760,o),
(94,744.667,o),
(94,698,cs),
(94,652.667,o),
(119,636,o),
(151,636,cs)
);
},
{
closed = 1;
nodes = (
(81.333,-240,o),
(142.5,-216,o),
(176.5,-148,cs),
(193.5,-114,o),
(202,-67.333,o),
(202,-8,cs),
(202,536,l),
(23,536,l),
(23,494,l),
(26,494,ls),
(70,494,o),
(108,484.667,o),
(108,426,cs),
(108,-9,ls),
(108,-144.736,o),
(70.952,-193,o),
(-5,-193,cs),
(-12,-193,l),
(-12,-240,l),
(4,-240,l),
(4,-240,l)
);
}
);
width = 300;
}
);
note = j;
unicode = 106;
},
{
glyphname = k;
kernLeft = b;
kernRight = k;
lastChange = "2023-07-14 07:03:07 +0000";
layers = (
{
layerId = m01;
shapes = (
{
closed = 1;
nodes = (
(287,42,l),
(284,42,ls),
(240,42,o),
(202,50.333,o),
(202,109,cs),
(202,199,l),
(276,254,l),
(376,97,ls),
(431.735,9.417,o),
(456.345,0,o),
(572,0,cs),
(586,0,l),
(586,42,l),
(583,42,ls),
(537.667,42,o),
(506.667,70.667,o),
(472,124,cs),
(339,322,l),
(409,401,ls),
(461,459.667,o),
(504.667,494,o),
(550,494,c),
(550,536,l),
(329,536,l),
(329,494,l),
(345.667,494,o),
(358,492.833,o),
(366,490.5,cs),
(374,488.167,o),
(378,482.667,o),
(378,474,cs),
(378,464.667,o),
(374.167,453.5,o),
(366.5,440.5,cs),
(358.833,427.5,o),
(344.333,409,o),
(323,385,cs),
(198,248,l),
(198,248,o),
(202,323.145,o),
(202,374,cs),
(202,760,l),
(18,760,l),
(18,718,l),
(26,718,ls),
(70,718,o),
(108,708.667,o),
(108,650,cs),
(108,114,ls),
(108,51.333,o),
(71.333,42,o),
(26,42,cs),
(18,42,l),
(18,0,l),
(287,0,l),
(287,0,l)
);
}
);
width = 585;
}
);
note = k;
unicode = 107;
},
{
glyphname = l;
kernLeft = b;
lastChange = "2023-07-14 07:03:07 +0000";
layers = (
{
layerId = m01;
shapes = (
{
closed = 1;
nodes = (
(297,42,l),
(284,42,ls),
(238.667,42,o),
(202,51.333,o),
(202,114,cs),
(202,760,l),
(13,760,l),
(13,718,l),
(26,718,ls),
(70,718,o),
(108,708.667,o),
(108,650,cs),
(108,114,ls),
(108,51.333,o),
(71.333,42,o),
(26,42,cs),
(13,42,l),
(13,0,l),
(297,0,l),
(297,0,l)
);
}
);
width = 310;
}
);
note = l;
unicode = 108;
},
{
glyphname = m;
kernLeft = m;
kernRight = a;
lastChange = "2023-07-14 07:03:07 +0000";
layers = (
{
layerId = m01;
shapes = (
{
closed = 1;
nodes = (
(297,42,l),
(294,42,ls),
(250,42,o),
(212,50.333,o),
(212,109,cs),
(212,320,ls),
(212,410.15,o),
(243.705,482,o),
(328,482,cs),
(405.333,482,o),
(433,431.667,o),
(433,345,cs),
(433,0,l),
(607,0,l),
(607,42,l),
(604,42,ls),
(558.667,42,o),
(527,51.333,o),
(527,114,cs),
(527,333,ls),
(527,414.124,o),
(555.63,482,o),
(638,482,cs),
(715.333,482,o),
(743,431.667,o),
(743,345,cs),
(743,0,l),
(917,0,l),
(917,42,l),
(914,42,ls),
(868.667,42,o),
(837,51.333,o),
(837,114,cs),
(837,350,ls),
(837,487.333,o),
(776.667,546,o),
(674,546,cs),
(612.667,546,o),
(557,529.667,o),
(517,455,c),
(509,455,l),
(483.667,521.667,o),
(428,546,o),
(364,546,cs),
(302.667,546,o),
(253,529.667,o),
(213,455,c),
(208,455,l),
(195,536,l),
(38,536,l),
(38,494,l),
(41,494,ls),
(85,494,o),
(118,484.667,o),
(118,426,cs),
(118,114,ls),
(118,51.333,o),
(86.333,42,o),
(41,42,cs),
(28,42,l),
(28,0,l),
(297,0,l),
(297,0,l)
);
}
);
width = 945;
}
);
note = m;
unicode = 109;
},
{
glyphname = n;
kernLeft = m;
kernRight = a;
lastChange = "2023-07-14 07:03:07 +0000";
layers = (
{
layerId = m01;
shapes = (
{
closed = 1;
nodes = (
(297,42,l),
(292,42,ls),
(248,42,o),
(212,50.333,o),
(212,109,cs),
(212,320,ls),
(212,411.799,o),
(246.104,482,o),
(333,482,cs),
(414.333,482,o),
(443,431.667,o),
(443,345,cs),
(443,0,l),
(617,0,l),
(617,42,l),
(612,42,ls),
(566.667,42,o),
(537,51.333,o),
(537,114,cs),
(537,350,ls),
(537,487.333,o),
(474.333,546,o),
(369,546,cs),
(305,546,o),
(254.333,529.667,o),
(213,455,c),
(208,455,l),
(195,536,l),
(33,536,l),
(33,494,l),
(38,494,ls),
(82,494,o),
(118,484.667,o),
(118,426,cs),
(118,114,ls),
(118,51.333,o),
(81.333,42,o),
(36,42,cs),
(28,42,l),
(28,0,l),
(297,0,l),
(297,0,l)
);
}
);
width = 645;
}
);
note = n;
unicode = 110;
},
{
glyphname = o;
kernLeft = c;
kernRight = b;
lastChange = "2023-07-14 07:03:07 +0000";
layers = (
{
layerId = m01;
shapes = (
{
closed = 1;
nodes = (
(441.667,-10,o),
(522,81,o),
(522,269,cs),
(522,455.667,o),
(434,546,o),
(290,546,cs),
(135.333,546,o),
(55,455.667,o),
(55,269,cs),
(55,81,o),
(143,-10,o),
(287,-10,cs)
);
},
{
closed = 1;
nodes = (
(189,42,o),
(152,119.667,o),
(152,269,cs),
(152,418.333,o),
(188,493,o),
(288,493,cs),
(388,493,o),
(425,418.333,o),
(425,269,cs),
(425,119.667,o),
(389,42,o),
(289,42,cs)
);
}
);
width = 577;
}
);
note = o;
unicode = 111;
},
{
glyphname = p;
kernLeft = m;
kernRight = b;
lastChange = "2023-07-14 07:03:07 +0000";
layers = (
{
layerId = m01;
shapes = (
{
closed = 1;
nodes = (
(287,-198,l),
(284,-198,ls),
(240,-198,o),
(202,-189.667,o),
(202,-131,cs),
(202,-35,ls),
(202,-9.667,o),
(200.667,39.333,o),
(198,78,c),
(202,78,l),
(231.333,26,o),
(277.667,-10,o),
(355,-10,cs),
(487,-10,o),
(559,75.667,o),
(559,269,cs),
(559,461,o),
(487,546,o),
(355,546,cs),
(277.667,546,o),
(232.667,507.333,o),
(202,446,c),
(198,446,l),
(188,536,l),
(13,536,l),
(13,494,l),
(26,494,ls),
(70,494,o),
(108,484.667,o),
(108,426,cs),
(108,-126,ls),
(108,-188.667,o),
(71.333,-198,o),
(26,-198,cs),
(18,-198,l),
(18,-240,l),
(287,-240,l),
(287,-240,l)
);
},
{
closed = 1;
nodes = (
(233.667,54,o),
(202,130.333,o),
(202,269,cs),
(202,413,o),
(234,482,o),
(338,482,cs),
(427.333,482,o),
(462,412.667,o),
(462,270,cs),
(462,130,o),
(427,54,o),
(339,54,cs)
);
}
);
width = 614;
}
);
note = p;
unicode = 112;
},
{
glyphname = q;
kernLeft = c;
lastChange = "2023-07-14 07:03:07 +0000";
layers = (
{
layerId = m01;
shapes = (
{
closed = 1;
nodes = (
(596,-198,l),
(588,-198,ls),
(544,-198,o),
(506,-188.667,o),
(506,-130,cs),
(506,422,ls),
(506,484.667,o),
(542.667,494,o),
(588,494,cs),
(596,494,l),
(596,536,l),
(436,536,l),
(418,458,l),
(412,458,l),
(382.667,510,o),
(336.333,546,o),
(259,546,cs),
(127,546,o),
(55,460.333,o),
(55,267,cs),
(55,75,o),
(127,-10,o),
(259,-10,cs),
(337.667,-10,o),
(382.667,28.667,o),
(412,90,c),
(416,90,l),
(414.23,63.454,o),
(412,9.52,o),
(412,-40,cs),
(412,-126,ls),
(412,-188.667,o),
(375.333,-198,o),
(330,-198,cs),
(297,-198,l),
(297,-240,l),
(596,-240,l),
(596,-240,l)
);
},
{
closed = 1;
nodes = (
(186.667,54,o),
(152,124.667,o),
(152,266,cs),
(152,406,o),
(187,482,o),
(275,482,cs),
(380.333,482,o),
(412,405.667,o),
(412,267,cs),
(412,123,o),
(380,54,o),
(276,54,cs)
);
}
);
width = 614;
}
);
note = q;
unicode = 113;
},
{
glyphname = r;
kernLeft = m;
kernRight = r;
lastChange = "2023-07-14 07:03:07 +0000";
layers = (
{
layerId = m01;
shapes = (
{
closed = 1;
nodes = (
(322,42,l),
(294,42,ls),
(250,42,o),
(212,50.333,o),
(212,109,cs),
(212,266,ls),
(212,349.989,o),
(236.769,480,o),
(310,480,cs),
(348.667,480,o),
(363,456.667,o),
(363,402,c),
(429.667,402,o),
(456,431.667,o),
(456,473,cs),
(456,519.667,o),
(421.333,546,o),
(348,546,cs),
(289.333,546,o),
(259,525.333,o),
(239,492,cs),
(229,475.333,o),
(219.667,457,o),
(211,437,c),
(206,437,l),
(187,536,l),
(33,536,l),
(33,494,l),
(36,494,ls),
(80,494,o),
(118,484.667,o),
(118,426,cs),
(118,114,ls),
(118,51.333,o),
(81.333,42,o),
(36,42,cs),
(33,42,l),
(33,0,l),
(322,0,l),
(322,0,l)
);
}
);
width = 471;
}
);
note = r;
unicode = 114;
},
{
glyphname = s;
kernLeft = s;
kernRight = s;
lastChange = "2023-07-14 07:03:07 +0000";
layers = (
{
layerId = m01;
shapes = (
{
closed = 1;
nodes = (
(328.667,-10,o),
(407,43,o),
(407,147,cs),
(407,203,o),
(387,239.667,o),
(343,269,cs),
(321,283.667,o),
(292.333,298.333,o),
(257,313,cs),
(167.667,349,o),
(133,368.333,o),
(133,419,cs),
(133,465.667,o),
(160,499,o),
(228,499,cs),
(286.667,499,o),
(314,459.667,o),
(314,393,c),
(360.667,393,o),
(386,417,o),
(386,453,cs),
(386,503.667,o),
(336,545,o),
(240,545,cs),
(126.667,545,o),
(52,494.667,o),
(52,404,cs),
(52,346.667,o),
(73.833,311.167,o),
(118.5,282.5,cs),
(140.833,268.167,o),
(169,253.333,o),
(203,238,cs),
(268.333,210,o),
(301.5,191.333,o),
(315.5,170,cs),
(322.5,159.333,o),
(326,145.667,o),
(326,129,cs),
(326,75.667,o),
(286.667,38,o),
(216,38,cs),
(134.667,38,o),
(108,95.667,o),
(108,165,c),
(87.966,165,o),
(45,152.509,o),
(45,96,cs),
(45,26.667,o),
(110,-10,o),
(210,-10,cs)
);
}
);
width = 451;
}
);
note = s;
unicode = 115;
},
{
glyphname = t;
kernLeft = t;
lastChange = "2023-07-14 07:03:07 +0000";
layers = (
{
layerId = m01;
shapes = (
{
closed = 1;
nodes = (
(272,-10,o),
(311.667,-2,o),
(329,6,c),
(329,50,l),
(307.667,46,o),
(289,43,o),
(265,43,cs),
(219.667,43,o),
(189,74,o),
(189,142,cs),
(189,479,l),
(320,479,l),
(320,536,l),
(189,536,l),
(189,659,l),
(143,659,l),
(133.667,608.333,o),
(119.667,575,o),
(97,551,cs),
(75.667,528.333,o),
(43,519,o),
(19,519,c),
(19,479,l),
(95,479,l),
(95,145,ls),
(95,30.333,o),
(138.667,-10,o),
(240,-10,cs)
);
}
);
width = 352;
}
);
note = t;
unicode = 116;
},
{
glyphname = u;
kernLeft = u;
lastChange = "2023-07-14 07:03:07 +0000";
layers = (
{
layerId = m01;
shapes = (
{
closed = 1;
nodes = (
(338.333,-10,o),
(393.667,6.333,o),
(435,81,c),
(440,81,l),
(453,0,l),
(612,0,l),
(612,42,l),
(609,42,ls),
(565,42,o),
(527,50.333,o),
(527,109,cs),
(527,536,l),
(348,536,l),
(348,494,l),
(351,494,ls),
(396.333,494,o),
(433,484.667,o),
(433,422,cs),
(433,216,ls),
(433,118.667,o),
(395,54,o),
(307,54,cs),
(225.667,54,o),
(202,104.333,o),
(202,191,cs),
(202,536,l),
(23,536,l),
(23,494,l),
(26,494,ls),
(70,494,o),
(108,484.667,o),
(108,426,cs),
(108,186,ls),
(108,48.667,o),
(167.667,-10,o),
(273,-10,cs)
);
}
);
width = 635;
}
);
note = u;
unicode = 117;
},
{
glyphname = v;
lastChange = "2023-07-14 07:03:07 +0000";
layers = (
{
layerId = m01;
shapes = (
{
closed = 1;
nodes = (
(330,0,l),
(488,416,ls),
(512,480,o),
(525.333,494,o),
(564,494,cs),
(576,494,l),
(576,536,l),
(362,536,l),
(362,494,l),
(369,494,ls),
(413,494,o),
(435,477.667,o),
(435,445,cs),
(435,432.333,o),
(432,418,o),
(426,402,cs),
(354,207,ls),
(345.333,183,o),
(335.667,157.667,o),
(325,131,cs),
(314.333,104.333,o),
(307.333,84,o),
(304,70,c),
(294.667,104.667,o),
(275.667,170.667,o),
(257,220,cs),
(189,409,ls),
(183.667,423.667,o),
(181,435.333,o),
(181,446,cs),
(181,478,o),
(201,494,o),
(241,494,cs),
(254,494,l),
(254,536,l),
(4,536,l),
(4,494,l),
(46.667,494,o),
(63.333,483.667,o),
(78,441,cs),
(239,0,l),
(239,0,l)
);
}
);
width = 579;
}
);
note = v;
unicode = 118;
},
{
glyphname = v.bubble;
lastChange = "2023-07-14 07:03:07 +0000";
layers = (
{
layerId = m01;
shapes = (
{
closed = 1;
nodes = (
(334,-27,l),
(605,517,l),
(605,563,l),
(369,563,l),
(250,563,l),
(-25,563,l),
(-25,517,l),
(234,-27,l),
(234,-27,l)
);
}
);
width = 579;
}
);
note = v;
},
{
glyphname = w;
kernLeft = w;
kernRight = w;
lastChange = "2023-07-14 07:03:07 +0000";
layers = (
{
layerId = m01;
shapes = (
{
closed = 1;
nodes = (
(285,0,l),
(427,418,l),
(564,0,l),
(644,0,l),
(773,416,ls),
(793,482.667,o),
(809.333,494,o),
(848,494,cs),
(861,494,l),
(861,536,l),
(647,536,l),
(647,494,l),
(654,494,ls),
(698,494,o),
(720,477.667,o),
(720,445,cs),
(720,434.333,o),
(716.333,412.333,o),
(711,395,cs),
(661,234,ls),
(641,170.667,o),
(628,122,o),
(622,88,c),
(619,88,l),
(613.449,119.455,o),
(596.769,174.694,o),
(576,237,cs),
(476,533,l),
(413,533,l),
(309,231,ls),
(291.667,181.667,o),
(274.667,121.333,o),
(268,88,c),
(265,88,l),
(263.62,95.818,o),
(244.747,190.439,o),
(230,241,cs),
(183,409,ls),
(179,423.667,o),
(175,441.333,o),
(175,452,cs),
(175,485.333,o),
(195,494,o),
(235,494,cs),
(248,494,l),
(248,536,l),
(1,536,l),
(1,494,l),
(4,494,ls),
(42.667,494,o),
(60.333,483.667,o),
(75,441,c),
(206,0,l),
(206,0,l)
);
}
);
width = 862;
}
);
note = w;
unicode = 119;
},
{
glyphname = w.bubble;
lastChange = "2023-07-14 07:03:07 +0000";
layers = (
{
layerId = m01;
shapes = (
{
closed = 1;
nodes = (
(710,-27,l),
(949,563,l),
(1,563,l),
(227,-27,l),
(227,-27,l)
);
}
);
width = 950;
}
);
},
{
glyphname = x;
kernLeft = x;
lastChange = "2023-07-14 07:03:07 +0000";
layers = (
{
layerId = m01;
shapes = (
{
closed = 1;
nodes = (
(243,42,l),
(240,42,ls),
(218,42,o),
(202.167,44.5,o),
(192.5,49.5,cs),
(182.833,54.5,o),
(178,62.333,o),
(178,73,cs),
(178,94.333,o),
(193,120,o),
(205,136,cs),
(275,234,l),
(342,144,ls),
(357.333,123.333,o),
(367.5,108.5,o),
(372.5,99.5,cs),
(377.5,90.5,o),
(380,82.333,o),
(380,75,cs),
(380,53,o),
(360,42,o),
(320,42,cs),
(315,42,l),
(315,0,l),
(573,0,l),
(573,42,l),
(560,42,ls),
(534.667,42,o),
(509.333,56.333,o),
(480,95,cs),
(333,293,l),
(436,430,ls),
(476,484.667,o),
(498.333,494,o),
(537,494,cs),
(546,494,l),
(546,536,l),
(327,536,l),
(327,494,l),
(330,494,ls),
(360.667,494,o),
(384,489,o),
(384,465,cs),
(384,447.667,o),
(373.667,426.667,o),
(359,404,cs),
(307,329,l),
(241,419,ls),
(226.333,440.333,o),
(218,451.667,o),
(218,465,cs),
(218,473,o),
(221.833,479.833,o),
(229.5,485.5,cs),
(237.167,491.167,o),
(252.333,494,o),
(275,494,cs),
(278,494,l),
(278,536,l),
(24,536,l),
(24,494,l),
(37,494,ls),
(67.667,494,o),
(93.667,475.667,o),
(123,441,c),
(249,269,l),
(123,106,ls),
(84.333,56.667,o),
(62,42,o),
(14,42,cs),
(5,42,l),
(5,0,l),
(243,0,l),
(243,0,l)
);
}
);
width = 578;
}
);
note = x;
unicode = 120;
},
{
glyphname = y;
kernLeft = y;
kernRight = y;
lastChange = "2023-07-14 07:03:07 +0000";
layers = (
{
layerId = m01;
shapes = (
{
closed = 1;
nodes = (
(47,-240,ls),
(135,-240,o),
(191.167,-228.5,o),
(230.5,-194.5,cs),
(269.833,-160.5,o),
(299.333,-101.333,o),
(334,-4,cs),
(486,416,ls),
(508.667,480,o),
(523.333,494,o),
(562,494,cs),
(565,494,l),
(565,536,l),
(357,536,l),
(357,494,l),
(360,494,ls),
(404,494,o),
(426,477.667,o),
(426,445,cs),
(426,432.333,o),
(423,418,o),
(417,402,cs),
(350,207,ls),
(343.333,187,o),
(336.167,166.667,o),
(328.5,146,cs),
(320.833,125.333,o),
(314.667,105.333,o),
(310,86,c),
(304.114,119.352,o),
(277.382,195.622,o),
(262,231,cs),
(189,409,ls),
(183.667,422.333,o),
(181,434.667,o),
(181,446,cs),
(181,478,o),
(201,494,o),
(241,494,cs),
(244,494,l),
(244,536,l),
(4,536,l),
(4,494,l),
(7,494,ls),
(45.667,494,o),
(60.667,482.333,o),
(78,441,cs),
(263,4,l),
(241.667,-70.667,o),
(207.5,-132.333,o),
(149.5,-167,cs),
(120.5,-184.333,o),
(83.333,-193,o),
(38,-193,c),
(38,-240,l),
(38,-240,l)
);
}
);
width = 565;
}
);
note = y;
unicode = 121;
},
{
glyphname = z;
kernLeft = z;
lastChange = "2023-07-14 07:03:07 +0000";
layers = (
{
layerId = m01;
shapes = (
{
closed = 1;
nodes = (
(455,162,l),
(413,162,l),
(408,139,ls),
(398.667,96.333,o),
(386.667,57,o),
(340,57,cs),
(158,57,l),
(449,495,l),
(449,536,l),
(66,536,l),
(56,394,l),
(98,394,l),
(99,398,ls),
(113.667,451.333,o),
(122.667,479,o),
(176,479,cs),
(332,479,l),
(42,40,l),
(42,0,l),
(450,0,l),
(450,0,l)
);
}
);
width = 511;
}
);
note = z;
unicode = 122;
},
